<svg width="98" height="24" viewBox="0 0 98 24" fill="none" xmlns="http://www.w3.org/2000/svg">
<path d="M5.5011 17.5625C6.11778 18.0773 7.0004 18.3149 7.92541 18.2103C8.90208 18.1019 9.79395 17.6252 10.315 16.9401C11.3796 15.5205 11.0674 13.2283 9.64517 12.0306C8.19367 10.8083 6.09928 10.6857 4.30783 11.725C2.79774 12.5999 1.48191 14.6389 1.94673 17.2188C2.28127 19.0769 3.71967 20.8126 5.60517 21.6382C8.27307 22.8059 11.674 22.1679 13.6921 20.1215C15.6408 18.146 16.2359 15.2964 15.213 12.8614C14.6246 11.5014 13.884 10.2081 13.0045 9.00467C11.6286 7.13681 11.1213 5.34814 11.4975 3.68649C11.656 2.99396 11.9615 2.34102 12.3948 1.76931C9.61973 1.7581 4.77034 2.49927 3.25485 7.7801L1.47034 7.29968C4.04266 -1.66084 14.5886 0.141281 14.6958 0.160706L17.1779 0.608994L14.9841 1.82311C14.9756 1.82759 13.6227 2.61209 13.299 4.08621C13.0477 5.22635 13.4532 6.52938 14.5077 7.95792C15.4701 9.2747 16.2803 10.6901 16.9235 12.1785C18.2232 15.2672 17.4793 18.87 15.028 21.3572C13.3383 23.0697 10.8793 23.9999 8.43417 23.9999C7.19587 24.0061 5.97036 23.757 4.83894 23.2692C2.37146 22.1903 0.562287 19.9885 0.118279 17.5229C-0.415147 14.5604 0.889126 11.61 3.35583 10.1799C5.84721 8.73794 8.79107 8.9307 10.8585 10.6716C12.9999 12.4759 13.4354 15.8269 11.8097 17.9936C10.9803 19.0971 9.64209 19.8263 8.13817 19.9937C6.69823 20.1551 5.29683 19.7628 4.29164 18.9193L5.5011 17.5625Z" fill="#FF8C00"/>
<path d="M36.8305 8.48242C34.0639 8.48242 32.0566 10.3503 32.0566 12.9257C32.0566 15.5011 34.0608 17.3862 36.8305 17.3862C39.6001 17.3862 41.6213 15.5108 41.6213 12.9257C41.6213 10.3107 39.6518 8.48242 36.8305 8.48242ZM36.8305 15.8485C35.1462 15.8485 33.9707 14.6471 33.9707 12.9257C33.9707 11.2043 35.1462 10.0029 36.8305 10.0029C38.5148 10.0029 39.7081 11.2073 39.7081 12.9257C39.7081 14.6441 38.5248 15.8485 36.8305 15.8485Z" fill="#220052"/>
<path d="M50.6595 8.58301V12.9762C50.6595 14.7432 49.6296 15.7982 47.9052 15.7982C46.3512 15.7982 45.5295 14.927 45.5295 13.2773V8.58301H43.5469V13.562C43.5469 16.0276 44.9675 17.3859 47.546 17.3859C48.7724 17.3859 49.8586 16.9443 50.5369 16.1748L50.6718 16.0193L51.2361 17.2678H52.6421V8.58301H50.6595Z" fill="#220052"/>
<path d="M59.2638 8.37207C58.0782 8.37207 57.1645 8.79819 56.5227 9.65044L56.2066 8.42138H54.9609V17.3871H56.8048V12.6054C56.8048 10.9452 57.5692 10.1154 59.0981 10.1159H60.0609V8.37207H59.2638Z" fill="#220052"/>
<path d="M70.1256 12.7018C70.1354 11.8811 69.9416 11.0701 69.5606 10.3371C69.1952 9.63438 68.6376 9.04251 67.9487 8.62611C67.2519 8.20024 66.4554 7.9873 65.5591 7.9873C64.241 7.9873 63.1415 8.43559 62.2607 9.33217C61.3799 10.2287 60.9395 11.3465 60.9395 12.6854C60.9395 14.0257 61.3799 15.1435 62.2607 16.0385C63.1415 16.9336 64.241 17.3819 65.5591 17.3834C66.5108 17.3972 67.442 17.1152 68.2162 16.5787C68.9927 16.0423 69.558 15.2979 69.9121 14.3455H67.9657C67.8175 14.6152 67.6173 14.8549 67.376 15.0516C67.1323 15.2483 66.8535 15.4002 66.5535 15.4998C66.2332 15.6068 65.8964 15.6601 65.5576 15.6575C64.8258 15.6575 64.2137 15.4471 63.7214 15.0262C63.2291 14.6053 62.9272 14.0354 62.8157 13.3167H70.0925C70.1151 13.0751 70.1261 12.8701 70.1256 12.7018ZM62.8488 11.8231C63.003 11.1467 63.3214 10.6153 63.8039 10.2287C64.2865 9.84172 64.8692 9.64746 65.5576 9.64746C65.9835 9.64253 66.405 9.73063 66.7909 9.90523C67.1617 10.0768 67.484 10.3333 67.7298 10.6524C67.995 11.0015 68.1817 11.4005 68.2779 11.8239L62.8488 11.8231Z" fill="#220052"/>
<path d="M79.8604 8.20616L79.6438 9.31866C78.7804 8.43354 77.6894 7.99073 76.3708 7.99023C75.03 7.99023 73.9143 8.43553 73.0237 9.32613C72.1332 10.2167 71.6871 11.335 71.6855 12.6808C71.6855 14.0257 72.1316 15.1464 73.0237 16.043C73.9159 16.9395 75.0315 17.3878 76.3708 17.3878C77.6663 17.3878 78.7455 16.951 79.6083 16.0773L79.7902 17.1719H81.2857V8.20616H79.8604ZM78.6062 14.7893C78.0574 15.3481 77.3592 15.6276 76.5118 15.6276C75.6644 15.6276 74.9611 15.3481 74.402 14.7893C73.8424 14.2304 73.5628 13.5301 73.5633 12.6883C73.5572 12.1638 73.6899 11.6464 73.9488 11.1858C74.1943 10.7476 74.559 10.383 75.0033 10.1316C75.4603 9.87545 75.9801 9.74379 76.508 9.75051C77.3595 9.75051 78.0602 10.027 78.6101 10.5798C79.1599 11.1327 79.4338 11.8331 79.4318 12.6808C79.4282 13.5266 79.1525 14.2294 78.6047 14.7893H78.6062Z" fill="#220052"/>
<path d="M87.1823 11.7586C87.4814 11.8139 87.7029 11.8555 87.8468 11.8833C87.9909 11.911 88.2045 11.9581 88.4866 12.0328C88.7127 12.0853 88.9325 12.1604 89.1426 12.2569C89.3293 12.3538 89.5096 12.4621 89.6822 12.5812C89.8689 12.7022 90.0266 12.8607 90.1447 13.0459C90.2628 13.2471 90.355 13.4617 90.4191 13.6847C90.4986 13.9546 90.5378 14.2341 90.5355 14.5148C90.5355 15.3895 90.2033 16.0868 89.5388 16.6068C88.8743 17.1268 87.9938 17.3868 86.8971 17.3868C85.8005 17.3868 84.9199 17.1101 84.2554 16.5567C83.591 16.0034 83.2477 15.2619 83.2256 14.3325H85.0363C85.0579 14.7858 85.2434 15.1372 85.5928 15.3867C85.9423 15.6363 86.3991 15.7608 86.9634 15.7603C87.2653 15.765 87.5658 15.7201 87.8522 15.6273C88.093 15.5514 88.3082 15.4138 88.475 15.2291C88.6292 15.0531 88.7115 14.8285 88.7063 14.5977C88.7076 14.4733 88.6851 14.3496 88.64 14.2331C88.5926 14.1189 88.5153 14.0188 88.4157 13.9425C88.3153 13.8628 88.2068 13.7932 88.0919 13.7348C87.9531 13.6693 87.8083 13.6166 87.6595 13.5771C87.4822 13.5271 87.3242 13.489 87.1862 13.4606C87.0482 13.4322 86.8678 13.403 86.6466 13.3694L86.0738 13.2618C85.9243 13.2342 85.7355 13.1923 85.5088 13.1371C85.3177 13.0939 85.1313 13.0328 84.9523 12.9548C84.8079 12.8885 84.6444 12.8083 84.462 12.7142C84.2945 12.6319 84.1451 12.519 84.0219 12.3817C83.904 12.2453 83.7958 12.1012 83.6981 11.9506C83.5888 11.7792 83.5106 11.591 83.4669 11.394C83.414 11.1652 83.3882 10.9313 83.3898 10.6969C83.3898 9.88897 83.7081 9.23596 84.3448 8.73787C84.9816 8.23977 85.8208 7.99072 86.8624 7.99072C87.9031 7.99072 88.7392 8.25073 89.3707 8.77074C90.0023 9.29076 90.3235 9.98809 90.3343 10.8627H88.5899C88.5791 10.4424 88.4185 10.1186 88.1081 9.89146C87.7977 9.66433 87.3714 9.55101 86.8293 9.55151C86.319 9.55151 85.9145 9.65113 85.616 9.85037C85.3169 10.0491 85.1673 10.3099 85.1673 10.6304C85.1649 10.7498 85.1874 10.8685 85.2336 10.9793C85.2835 11.085 85.3608 11.1764 85.4579 11.2445C85.5527 11.3153 85.6527 11.3792 85.757 11.4358C85.892 11.4992 86.0343 11.5466 86.181 11.577C86.3691 11.6209 86.5233 11.654 86.6435 11.6764C86.7738 11.6981 86.9511 11.725 87.1823 11.7586Z" fill="#220052"/>
<path d="M96.4378 15.6154C95.9114 15.6154 95.5005 15.4749 95.2184 15.1977C94.9362 14.9205 94.7921 14.5185 94.7921 14.0023V9.99906H97.4507V8.3262H94.5107V6.61523H93.1178L92.8557 8.3262H91.2539V9.99906H92.8488V14.1517C92.8488 15.1447 93.1417 15.9404 93.7191 16.5172C94.2964 17.094 95.0927 17.3861 96.0879 17.3861H97.5001V15.6154H96.4378Z" fill="#220052"/>
<path d="M27.7674 15.197C27.4845 14.9198 27.3411 14.5178 27.3411 14.0015V9.99906H29.9998V8.3262H27.0567V6.61523H25.6692L25.4071 8.3262H23.8037V9.99906H25.3986V14.1517C25.3986 15.1447 25.6915 15.9404 26.2681 16.5172C26.8447 17.094 27.6425 17.3861 28.6377 17.3861H30.0491V15.6154H28.9838C28.4596 15.6154 28.0495 15.4741 27.7674 15.197Z" fill="#220052"/>
</svg>
